<svg width="36" height="40" viewBox="0 0 36 40" fill="none" xmlns="http://www.w3.org/2000/svg">
<path d="M32.2029 14.7183L23.1339 13.5818C23.8959 11.7648 24.779 8.88123 24.779 5.2771C24.779 3.25653 24.1292 1.76697 22.8477 0.85022C21.9867 0.234375 20.8798 -0.078125 19.5582 -0.078125H19.4928L19.428 -0.0708008C17.2567 0.170898 16.6029 2.19635 16.6907 3.51593C16.7017 3.8559 16.6656 4.18915 16.5837 4.50623C16.3415 5.44128 15.9409 6.2207 14.9732 8.10394L14.9279 8.19153C14.2815 9.45129 13.5388 9.90387 12.5111 10.5304C11.6356 11.0641 10.6434 11.6687 9.5729 12.8375C9.08856 13.3652 8.53083 14.1367 8.03548 14.964C7.94558 15.0836 7.86944 15.2188 7.80523 15.3708C7.79728 15.3864 7.78872 15.4004 7.78046 15.4144C7.75692 15.4556 7.72542 15.5103 7.69209 15.5762C7.64256 15.6674 7.58752 15.7694 7.53095 15.8774C6.6014 16.6827 5.16457 16.6675 4.29129 16.6577C4.20139 16.6568 4.11853 16.6559 4.04361 16.6559C2.51261 16.6559 1.60691 17.2553 1.11706 17.7582C0.435183 18.4573 0.0749828 19.4458 0.0749828 20.6165L0.0743713 33.3673C0.0743713 34.2072 0.181392 35.4199 1.10758 36.2564C1.9723 37.0377 3.19754 37.128 4.04361 37.128H6.83807C7.52392 37.128 8.185 37.4219 9.02251 37.7942C9.49554 38.0045 10.0319 38.2428 10.6456 38.458C13.5262 39.454 17.36 39.9179 22.7101 39.9179C23.747 39.9179 26.9631 39.9219 26.9647 39.9219C28.1245 39.9219 29.2161 39.4675 30.1209 38.6081C30.6003 38.1534 30.8917 37.5815 31.0113 36.8601C31.0376 36.7004 31.055 36.3641 31.0568 36.1819C31.0752 35.7248 31.0079 35.2899 30.8636 34.8904C31.7928 34.7858 32.6695 34.3854 33.3397 33.7463C34.1619 32.962 34.6148 31.8726 34.6148 30.6781C34.6148 29.8026 34.3368 28.9755 33.8222 28.2962C34.1262 28.1467 34.4142 27.9532 34.6711 27.7039C35.337 27.0575 35.6813 26.1615 35.6954 25.0403C35.7382 23.9218 35.348 22.9492 34.6142 22.2305C35.3905 21.4575 35.9006 20.3503 35.9535 19.1226C36.0535 16.8073 34.3754 14.8434 32.2029 14.7183Z" fill="white"/>
</svg>
