<svg width="36" height="40" viewBox="0 0 36 40" fill="none" xmlns="http://www.w3.org/2000/svg">
<path d="M32.1118 15.7147L32.0785 15.7106L23.0096 14.5741L21.7022 14.4102L22.2117 13.1951C22.9356 11.4691 23.779 8.71811 23.779 5.2771C23.779 3.47812 23.2123 2.34055 22.2659 1.66353C21.6126 1.1963 20.7233 0.921875 19.5582 0.921875H19.5491L19.5402 0.922877L19.5386 0.923062C18.7921 1.00616 18.3475 1.37308 18.0681 1.83551C17.7665 2.3347 17.656 2.96037 17.6885 3.44957L17.6896 3.46656L17.6902 3.48357C17.7041 3.91525 17.6585 4.34383 17.5519 4.75645L17.5517 4.75695C17.2815 5.80024 16.8316 6.67559 15.9252 8.43914L15.8626 8.56101L15.8616 8.56298L15.8176 8.64805C15.8174 8.64847 15.8172 8.64888 15.817 8.6493C15.0421 10.1587 14.0964 10.7352 13.0591 11.3675L13.0317 11.3842C12.1677 11.911 11.2794 12.4549 10.3103 13.5129L10.3096 13.5138C9.88374 13.9777 9.36514 14.6899 8.89345 15.4777L8.86647 15.5228L8.83491 15.5647C8.80001 15.6112 8.76291 15.6736 8.72639 15.76L8.71227 15.7934L8.69576 15.8257C8.6812 15.8542 8.66792 15.8777 8.6588 15.8935L8.64764 15.9126L8.64513 15.9168C8.62175 15.9577 8.60361 15.9896 8.58451 16.0274L8.57792 16.0404L8.57094 16.0533C8.52205 16.1433 8.46987 16.24 8.41685 16.3413L8.32896 16.5091L8.18577 16.6332C7.5271 17.2038 6.73229 17.4487 6.05148 17.5601C5.37962 17.67 4.72916 17.6627 4.29935 17.6579L4.2811 17.6577L4.28011 17.6577L4.26101 17.6575C4.1777 17.6566 4.10715 17.6559 4.04361 17.6559C2.80871 17.6559 2.15422 18.1265 1.83342 18.4559L1.83296 18.4564C1.36861 18.9325 1.07498 19.6512 1.07498 20.6165V20.6165L1.07437 33.3674C1.07437 34.1734 1.19389 34.9869 1.77783 35.5143L1.77796 35.5144C2.33779 36.0202 3.20918 36.128 4.04361 36.128H6.83807C7.73987 36.128 8.5757 36.5004 9.33172 36.8372C9.3642 36.8517 9.39654 36.8661 9.42873 36.8804C9.90332 37.0914 10.4047 37.3138 10.9745 37.5136C13.6991 38.4553 17.4019 38.9179 22.7101 38.9179C23.2292 38.9179 24.293 38.9189 25.2267 38.9199L26.4462 38.9213C26.6658 38.9215 26.829 38.9217 26.9092 38.9218L26.9647 38.9219C27.8476 38.9219 28.6977 38.5806 29.4322 37.883L29.4327 37.8825C29.7372 37.5938 29.9366 37.2276 30.0246 36.6975L32.1118 15.7147ZM32.1118 15.7147L32.1454 15.7167M32.1118 15.7147L32.1454 15.7167M32.1454 15.7167C33.7185 15.8073 35.0332 17.255 34.9544 19.0795L34.9544 19.0796C34.9122 20.0591 34.5052 20.9279 33.9086 21.5219L33.191 22.2364L33.9145 22.945C34.4387 23.4584 34.7286 24.154 34.6961 25.002L34.6956 25.0149L34.6955 25.0277C34.684 25.9425 34.4108 26.5629 33.9746 26.9863L33.9745 26.9863C33.8013 27.1545 33.6021 27.29 33.3808 27.3989L32.2933 27.934L33.0251 28.9C33.4063 29.4032 33.6148 30.0175 33.6148 30.6781C33.6148 31.6147 33.263 32.4375 32.6497 33.0226C32.1427 33.5059 31.4712 33.8157 30.7516 33.8967L29.4925 34.0386L29.9231 35.2302C30.0218 35.5036 30.071 35.8091 30.0576 36.1418L30.057 36.1569M32.1454 15.7167L30.057 36.1569M30.057 36.1569L30.0569 36.1719M30.057 36.1569L30.0569 36.1719M30.0569 36.1719C30.0552 36.3406 30.0382 36.6136 30.0247 36.6966L30.0569 36.1719Z" stroke="#7B8386" stroke-width="2"/>
</svg>
